<svg width="248" height="240" xmlns="http://www.w3.org/2000/svg" xmlns:xlink="http://www.w3.org/1999/xlink" overflow="hidden"><defs><clipPath id="clip0"><rect x="0" y="-266" width="248" height="240"/></clipPath><clipPath id="clip1"><rect x="0" y="-266" width="247" height="239"/></clipPath><clipPath id="clip2"><rect x="0" y="-266" width="248" height="239"/></clipPath><clipPath id="clip3"><rect x="0" y="-266" width="285" height="239"/></clipPath></defs><g clip-path="url(#clip0)" transform="matrix(1 0 0 1 0 266)"><g clip-path="url(#clip1)"><g clip-path="url(#clip2)"><g clip-path="url(#clip3)"><path d="M4262.24 1004.33C4264.65 1004.36 4266.67 1002.41 4266.67 999.987 4266.67 999.888 4266.67 999.789 4266.67 999.691 4266.67 996.398 4264.69 994.825 4260.59 994.825L4254.01 994.825 4254.01 1012.06 4256.49 1012.06 4256.49 1004.55 4259.53 1004.55 4259.6 1004.64 4264.32 1012.06 4267 1012.06 4261.91 1004.38ZM4259.38 1002.61 4256.49 1002.61 4256.49 996.779 4260.15 996.779C4262.02 996.779 4264.18 997.086 4264.18 999.548 4264.18 1002.38 4261.98 1002.61 4259.35 1002.61" fill="#FFD701" fill-rule="nonzero" fill-opacity="1" transform="matrix(1.00425 0 0 1 -4011.26 -1046.76)"/><path d="M3508.5 411.805 3473.38 411.805 3473.38 356.802C3473.38 343.686 3473.14 326.802 3455.11 326.802 3436.82 326.802 3434.02 341.092 3434.02 355.848L3434.02 411.802 3398.9 411.802 3398.9 298.693 3432.61 298.693 3432.61 314.151 3433.08 314.151C3439.96 302.396 3452.74 295.375 3466.35 295.88 3501.95 295.88 3508.51 319.295 3508.51 349.756ZM3359.27 283.232C3348.01 283.234 3338.88 274.111 3338.88 262.854 3338.88 251.597 3348 242.471 3359.26 242.468 3370.52 242.466 3379.64 251.59 3379.64 262.847 3379.65 274.103 3370.52 283.23 3359.27 283.232M3376.83 411.805 3341.67 411.805 3341.67 298.693 3376.83 298.693ZM3526.01 209.852 3324.02 209.852C3314.47 209.745 3306.64 217.391 3306.53 226.938L3306.53 429.765C3306.64 439.318 3314.47 446.972 3324.02 446.869L3526.01 446.869C3535.58 446.99 3543.44 439.336 3543.57 429.765L3543.57 226.923C3543.43 217.358 3535.57 209.711 3526.01 209.838" fill="#FFD701" fill-rule="nonzero" fill-opacity="1" transform="matrix(1.00425 0 0 1 -3319.18 -475.837)"/><path d="M4231.25 966.668C4222.32 966.753 4215.15 974.059 4215.23 982.986 4215.3 991.913 4222.62 999.08 4231.54 998.996 4240.47 998.908 4247.64 991.602 4247.57 982.675 4247.46 973.872 4240.36 966.753 4231.54 966.668L4231.25 966.668M4231.25 997.144C4223.42 997.276 4216.95 991.034 4216.84 983.209 4216.69 975.383 4222.95 968.933 4230.77 968.801 4238.6 968.67 4245.04 974.911 4245.15 982.737 4245.15 982.817 4245.15 982.894 4245.15 982.975 4245.34 990.632 4239.26 996.972 4231.62 997.137L4231.25 997.137" fill="#FFD701" fill-rule="nonzero" fill-opacity="1" transform="matrix(1.00425 0 0 1 -3982.67 -1026.28)"/></g></g></g></g></svg>